<svg width="56" height="26" viewBox="0 0 56 26" fill="none" xmlns="http://www.w3.org/2000/svg">
<path d="M25 13C25 19.6274 19.6274 25 13 25C6.37262 25 1 19.6274 1 13C1 6.37259 6.37262 1 13 1C19.6274 1 25 6.37259 25 13Z" fill="#FFF079"/>
<path d="M18.5681 13.1681C18.5681 14.0107 18.4214 14.7947 18.1281 15.5201C17.8401 16.2454 17.4321 16.8774 16.9041 17.4161C16.3761 17.9494 15.7387 18.3681 14.9921 18.6721C14.2507 18.9761 13.4267 19.1281 12.5201 19.1281C11.6134 19.1281 10.7867 18.9761 10.0401 18.6721C9.29339 18.3681 8.65339 17.9494 8.12005 17.4161C7.59205 16.8774 7.18139 16.2454 6.88805 15.5201C6.60005 14.7947 6.45605 14.0107 6.45605 13.1681C6.45605 12.3254 6.60005 11.5414 6.88805 10.8161C7.18139 10.0907 7.59205 9.46141 8.12005 8.92807C8.65339 8.39474 9.29339 7.97607 10.0401 7.67207C10.7867 7.36807 11.6134 7.21607 12.5201 7.21607C13.4267 7.21607 14.2507 7.37074 14.9921 7.68007C15.7387 7.98407 16.3761 8.40274 16.9041 8.93607C17.4321 9.46941 17.8401 10.0987 18.1281 10.8241C18.4214 11.5494 18.5681 12.3307 18.5681 13.1681ZM15.8001 13.1681C15.8001 12.5921 15.7254 12.0747 15.5761 11.6161C15.4267 11.1521 15.2107 10.7601 14.9281 10.4401C14.6507 10.1201 14.3094 9.87474 13.9041 9.70407C13.4987 9.53341 13.0374 9.44807 12.5201 9.44807C11.9974 9.44807 11.5307 9.53341 11.1201 9.70407C10.7147 9.87474 10.3707 10.1201 10.0881 10.4401C9.81072 10.7601 9.59739 11.1521 9.44805 11.6161C9.29872 12.0747 9.22405 12.5921 9.22405 13.1681C9.22405 13.7494 9.29872 14.2721 9.44805 14.7361C9.59739 15.1947 9.81072 15.5841 10.0881 15.9041C10.3707 16.2241 10.7147 16.4694 11.1201 16.6401C11.5307 16.8054 11.9974 16.8881 12.5201 16.8881C13.0374 16.8881 13.4987 16.8054 13.9041 16.6401C14.3094 16.4694 14.6507 16.2241 14.9281 15.9041C15.2107 15.5841 15.4267 15.1947 15.5761 14.7361C15.7254 14.2721 15.8001 13.7494 15.8001 13.1681Z" fill="black"/>
<path d="M22.0663 11.9841C22.3223 11.5361 22.6156 11.1841 22.9463 10.9281C23.2823 10.6721 23.6663 10.5441 24.0983 10.5441C24.4716 10.5441 24.7756 10.6321 25.0103 10.8081L24.8503 12.6321C24.8236 12.7494 24.7783 12.8294 24.7143 12.8721C24.6556 12.9147 24.573 12.9361 24.4663 12.9361C24.4236 12.9361 24.3676 12.9334 24.2983 12.9281C24.229 12.9227 24.157 12.9174 24.0823 12.9121C24.0076 12.9014 23.9303 12.8934 23.8503 12.8881C23.7756 12.8774 23.7063 12.8721 23.6423 12.8721C23.2796 12.8721 22.989 12.9681 22.7703 13.1601C22.557 13.3521 22.3756 13.6187 22.2263 13.9601V19.0001H19.7463V10.7041H21.2183C21.341 10.7041 21.4423 10.7147 21.5223 10.7361C21.6076 10.7574 21.677 10.7921 21.7303 10.8401C21.789 10.8827 21.8316 10.9414 21.8583 11.0161C21.8903 11.0907 21.917 11.1814 21.9383 11.2881L22.0663 11.9841Z" fill="black"/>
<path d="M28.3917 10.7041V19.0001H25.9117V10.7041H28.3917ZM28.6477 8.43207C28.6477 8.62941 28.6077 8.81607 28.5277 8.99207C28.4477 9.16274 28.3383 9.31474 28.1997 9.44807C28.061 9.57607 27.8983 9.68007 27.7117 9.76007C27.5303 9.83474 27.3357 9.87207 27.1277 9.87207C26.925 9.87207 26.7357 9.83474 26.5597 9.76007C26.3837 9.68007 26.2263 9.57607 26.0877 9.44807C25.9543 9.31474 25.8477 9.16274 25.7677 8.99207C25.693 8.81607 25.6557 8.62941 25.6557 8.43207C25.6557 8.22941 25.693 8.04007 25.7677 7.86407C25.8477 7.68807 25.9543 7.53341 26.0877 7.40007C26.2263 7.26674 26.3837 7.16274 26.5597 7.08807C26.7357 7.01341 26.925 6.97607 27.1277 6.97607C27.3357 6.97607 27.5303 7.01341 27.7117 7.08807C27.8983 7.16274 28.061 7.26674 28.1997 7.40007C28.3383 7.53341 28.4477 7.68807 28.5277 7.86407C28.6077 8.04007 28.6477 8.22941 28.6477 8.43207Z" fill="#FFF8E8"/>
<path d="M33.2813 14.4161C33.692 14.4161 33.988 14.3147 34.1693 14.1121C34.356 13.9041 34.4493 13.6374 34.4493 13.3121C34.4493 12.9761 34.356 12.7121 34.1693 12.5201C33.988 12.3281 33.692 12.2321 33.2813 12.2321C32.8706 12.2321 32.572 12.3281 32.3853 12.5201C32.204 12.7121 32.1133 12.9761 32.1133 13.3121C32.1133 13.4721 32.1346 13.6187 32.1773 13.7521C32.2253 13.8854 32.2973 14.0027 32.3933 14.1041C32.4893 14.2001 32.6093 14.2774 32.7533 14.3361C32.9026 14.3894 33.0786 14.4161 33.2813 14.4161ZM35.2013 19.3041C35.2013 19.1067 35.1133 18.9654 34.9373 18.8801C34.7613 18.7894 34.532 18.7254 34.2493 18.6881C33.9666 18.6507 33.6493 18.6294 33.2973 18.6241C32.9506 18.6134 32.604 18.5921 32.2573 18.5601C32.1026 18.6667 31.9746 18.7867 31.8733 18.9201C31.7773 19.0481 31.7293 19.1947 31.7293 19.3601C31.7293 19.4774 31.7533 19.5841 31.8013 19.6801C31.8546 19.7761 31.9453 19.8587 32.0733 19.9281C32.2013 19.9974 32.372 20.0507 32.5853 20.0881C32.804 20.1307 33.0786 20.1521 33.4093 20.1521C33.7666 20.1521 34.06 20.1307 34.2893 20.0881C34.5186 20.0454 34.7 19.9867 34.8333 19.9121C34.972 19.8374 35.068 19.7467 35.1213 19.6401C35.1746 19.5387 35.2013 19.4267 35.2013 19.3041ZM37.6493 10.9601V11.8641C37.6493 12.0027 37.6093 12.1121 37.5293 12.1921C37.4546 12.2721 37.324 12.3334 37.1373 12.3761L36.5373 12.5121C36.5693 12.6294 36.5933 12.7494 36.6093 12.8721C36.6306 12.9947 36.6413 13.1227 36.6413 13.2561C36.6413 13.6721 36.5533 14.0454 36.3773 14.3761C36.2066 14.7067 35.9693 14.9894 35.6653 15.2241C35.3666 15.4534 35.012 15.6321 34.6013 15.7601C34.1906 15.8827 33.7506 15.9441 33.2813 15.9441C33.1533 15.9441 33.028 15.9414 32.9053 15.9361C32.7826 15.9254 32.6626 15.9094 32.5453 15.8881C32.364 16.0001 32.2733 16.1254 32.2733 16.2641C32.2733 16.4027 32.348 16.5041 32.4973 16.5681C32.6466 16.6267 32.844 16.6694 33.0893 16.6961C33.3346 16.7174 33.612 16.7334 33.9213 16.7441C34.236 16.7494 34.556 16.7681 34.8813 16.8001C35.2066 16.8267 35.524 16.8747 35.8333 16.9441C36.148 17.0134 36.428 17.1254 36.6733 17.2801C36.9186 17.4347 37.116 17.6427 37.2653 17.9041C37.4146 18.1601 37.4893 18.4881 37.4893 18.8881C37.4893 19.2614 37.3986 19.6267 37.2173 19.9841C37.036 20.3414 36.7693 20.6587 36.4173 20.9361C36.0653 21.2134 35.6333 21.4347 35.1213 21.6001C34.6093 21.7707 34.0226 21.8561 33.3613 21.8561C32.7106 21.8561 32.148 21.7947 31.6733 21.6721C31.204 21.5494 30.812 21.3867 30.4973 21.1841C30.188 20.9867 29.9586 20.7574 29.8093 20.4961C29.66 20.2347 29.5853 19.9627 29.5853 19.6801C29.5853 19.3121 29.692 19.0054 29.9053 18.7601C30.1186 18.5147 30.4173 18.3174 30.8013 18.1681C30.5986 18.0454 30.4386 17.8881 30.3213 17.6961C30.204 17.5041 30.1453 17.2561 30.1453 16.9521C30.1453 16.8294 30.1666 16.7014 30.2093 16.5681C30.252 16.4294 30.3186 16.2961 30.4093 16.1681C30.5053 16.0347 30.6226 15.9094 30.7613 15.7921C30.9 15.6747 31.0653 15.5707 31.2573 15.4801C30.8253 15.2507 30.484 14.9494 30.2333 14.5761C29.9826 14.1974 29.8573 13.7574 29.8573 13.2561C29.8573 12.8401 29.9453 12.4667 30.1213 12.1361C30.2973 11.8001 30.5373 11.5174 30.8413 11.2881C31.1506 11.0534 31.5133 10.8747 31.9293 10.7521C32.3453 10.6241 32.796 10.5601 33.2813 10.5601C33.9853 10.5601 34.6093 10.6934 35.1533 10.9601H37.6493Z" fill="#FFF8E8"/>
<path d="M41.2198 10.7041V19.0001H38.7398V10.7041H41.2198ZM41.4758 8.43207C41.4758 8.62941 41.4358 8.81607 41.3558 8.99207C41.2758 9.16274 41.1665 9.31474 41.0278 9.44807C40.8891 9.57607 40.7265 9.68007 40.5398 9.76007C40.3585 9.83474 40.1638 9.87207 39.9558 9.87207C39.7531 9.87207 39.5638 9.83474 39.3878 9.76007C39.2118 9.68007 39.0545 9.57607 38.9158 9.44807C38.7825 9.31474 38.6758 9.16274 38.5958 8.99207C38.5211 8.81607 38.4838 8.62941 38.4838 8.43207C38.4838 8.22941 38.5211 8.04007 38.5958 7.86407C38.6758 7.68807 38.7825 7.53341 38.9158 7.40007C39.0545 7.26674 39.2118 7.16274 39.3878 7.08807C39.5638 7.01341 39.7531 6.97607 39.9558 6.97607C40.1638 6.97607 40.3585 7.01341 40.5398 7.08807C40.7265 7.16274 40.8891 7.26674 41.0278 7.40007C41.1665 7.53341 41.2758 7.68807 41.3558 7.86407C41.4358 8.04007 41.4758 8.22941 41.4758 8.43207Z" fill="#FFF8E8"/>
<path d="M45.2374 11.6001C45.3974 11.4507 45.5628 11.3121 45.7334 11.1841C45.9041 11.0561 46.0854 10.9494 46.2774 10.8641C46.4748 10.7734 46.6854 10.7041 46.9094 10.6561C47.1388 10.6027 47.3868 10.5761 47.6534 10.5761C48.1068 10.5761 48.5068 10.6561 48.8534 10.8161C49.2054 10.9707 49.5014 11.1894 49.7414 11.4721C49.9814 11.7494 50.1628 12.0827 50.2854 12.4721C50.4081 12.8561 50.4694 13.2747 50.4694 13.7281V19.0001H47.9894V13.7281C47.9894 13.3227 47.8961 13.0081 47.7094 12.7841C47.5228 12.5547 47.2481 12.4401 46.8854 12.4401C46.6134 12.4401 46.3574 12.4987 46.1174 12.6161C45.8828 12.7281 45.6534 12.8827 45.4294 13.0801V19.0001H42.9494V10.7041H44.4854C44.7948 10.7041 44.9974 10.8427 45.0934 11.1201L45.2374 11.6001Z" fill="#FFF8E8"/>
<path d="M51.7384 17.7441C51.7384 17.5521 51.7731 17.3734 51.8424 17.2081C51.9171 17.0427 52.0158 16.8987 52.1384 16.7761C52.2664 16.6534 52.4158 16.5574 52.5864 16.4881C52.7571 16.4134 52.9438 16.3761 53.1464 16.3761C53.3438 16.3761 53.5278 16.4134 53.6984 16.4881C53.8691 16.5574 54.0184 16.6534 54.1464 16.7761C54.2744 16.8987 54.3731 17.0427 54.4424 17.2081C54.5171 17.3734 54.5544 17.5521 54.5544 17.7441C54.5544 17.9361 54.5171 18.1174 54.4424 18.2881C54.3731 18.4534 54.2744 18.5974 54.1464 18.7201C54.0184 18.8427 53.8691 18.9387 53.6984 19.0081C53.5278 19.0774 53.3438 19.1121 53.1464 19.1121C52.9438 19.1121 52.7571 19.0774 52.5864 19.0081C52.4158 18.9387 52.2664 18.8427 52.1384 18.7201C52.0158 18.5974 51.9171 18.4534 51.8424 18.2881C51.7731 18.1174 51.7384 17.9361 51.7384 17.7441Z" fill="#FFF8E8"/>
</svg>
