<svg width="24" height="25" viewBox="0 0 24 25" fill="none" xmlns="http://www.w3.org/2000/svg">
<path fill-rule="evenodd" clip-rule="evenodd" d="M20.3871 4.12081C19.3387 3.05345 17.8468 2.5 16.1532 2.5H7.84677C4.33871 2.5 2 4.79285 2 8.23213V16.3362C2 18.0361 2.56452 19.4987 3.69355 20.5661C4.78226 21.5939 6.23387 22.1078 7.8871 22.1078H16.1129C17.8468 22.1078 19.2984 21.5544 20.3468 20.5661C21.4355 19.5383 22 18.0756 22 16.3757V8.23213C22 6.57179 21.4355 5.14864 20.3871 4.12081ZM20.2258 16.3757C20.2258 17.6012 19.7823 18.5895 19.0565 19.2615C18.3306 19.9336 17.3226 20.2894 16.1129 20.2894H7.8871C6.67742 20.2894 5.66935 19.9336 4.94355 19.2615C4.21774 18.55 3.85484 17.5617 3.85484 16.3362V8.23213C3.85484 7.04617 4.21774 6.05787 4.94355 5.3463C5.62903 4.67426 6.67742 4.31847 7.8871 4.31847H16.1935C17.4032 4.31847 18.4113 4.67426 19.1371 5.38583C19.8226 6.09741 20.2258 7.08571 20.2258 8.23213V16.3757ZM18.5323 7.08571C18.5323 7.71886 18.0087 8.23213 17.3629 8.23213C16.7171 8.23213 16.1935 7.71886 16.1935 7.08571C16.1935 6.45255 16.7171 5.93928 17.3629 5.93928C18.0087 5.93928 18.5323 6.45255 18.5323 7.08571ZM6.83871 12.2644C6.83871 9.45762 9.17742 7.2043 12 7.2043C14.8226 7.2043 17.1613 9.49715 17.1613 12.2644C17.1613 15.0316 14.8629 17.3245 12 17.3245C9.1371 17.3245 6.83871 15.0712 6.83871 12.2644ZM8.69355 12.2644C8.69355 14.0433 10.1855 15.506 12 15.506C13.8145 15.506 15.3065 14.0433 15.3065 12.2644C15.3065 10.4855 13.8145 9.02277 12 9.02277C10.1855 9.02277 8.69355 10.4855 8.69355 12.2644Z" fill="black"/>
</svg>
