<svg width="56" height="26" viewBox="0 0 56 26" fill="none" xmlns="http://www.w3.org/2000/svg">
<path d="M25.9512 13C25.9512 19.6274 20.5786 25 13.9512 25C7.32379 25 1.95117 19.6274 1.95117 13C1.95117 6.37259 7.32379 1 13.9512 1C20.5786 1 25.9512 6.37259 25.9512 13Z" fill="#F95533"/>
<path d="M19.0632 11.7521C19.0632 12.5947 18.9165 13.3787 18.6232 14.1041C18.3352 14.8294 17.9272 15.4614 17.3992 16.0001C16.8712 16.5334 16.2338 16.9521 15.4872 17.2561C14.7458 17.5601 13.9218 17.7121 13.0152 17.7121C12.1085 17.7121 11.2818 17.5601 10.5352 17.2561C9.78851 16.9521 9.14851 16.5334 8.61517 16.0001C8.08717 15.4614 7.67651 14.8294 7.38317 14.1041C7.09517 13.3787 6.95117 12.5947 6.95117 11.7521C6.95117 10.9094 7.09517 10.1254 7.38317 9.40006C7.67651 8.67473 8.08717 8.04539 8.61517 7.51206C9.14851 6.97872 9.78851 6.56006 10.5352 6.25606C11.2818 5.95206 12.1085 5.80006 13.0152 5.80006C13.9218 5.80006 14.7458 5.95472 15.4872 6.26406C16.2338 6.56806 16.8712 6.98673 17.3992 7.52006C17.9272 8.05339 18.3352 8.68272 18.6232 9.40806C18.9165 10.1334 19.0632 10.9147 19.0632 11.7521ZM16.2952 11.7521C16.2952 11.1761 16.2205 10.6587 16.0712 10.2001C15.9218 9.73606 15.7058 9.34406 15.4232 9.02406C15.1458 8.70406 14.8045 8.45873 14.3992 8.28806C13.9938 8.11739 13.5325 8.03206 13.0152 8.03206C12.4925 8.03206 12.0258 8.11739 11.6152 8.28806C11.2098 8.45873 10.8658 8.70406 10.5832 9.02406C10.3058 9.34406 10.0925 9.73606 9.94317 10.2001C9.79384 10.6587 9.71917 11.1761 9.71917 11.7521C9.71917 12.3334 9.79384 12.8561 9.94317 13.3201C10.0925 13.7787 10.3058 14.1681 10.5832 14.4881C10.8658 14.8081 11.2098 15.0534 11.6152 15.2241C12.0258 15.3894 12.4925 15.4721 13.0152 15.4721C13.5325 15.4721 13.9938 15.3894 14.3992 15.2241C14.8045 15.0534 15.1458 14.8081 15.4232 14.4881C15.7058 14.1681 15.9218 13.7787 16.0712 13.3201C16.2205 12.8561 16.2952 12.3334 16.2952 11.7521Z" fill="#FFF8E8"/>
<path d="M22.5614 10.5681C22.8174 10.1201 23.1108 9.76806 23.4414 9.51206C23.7774 9.25606 24.1614 9.12806 24.5934 9.12806C24.9668 9.12806 25.2708 9.21606 25.5054 9.39206L25.3454 11.2161C25.3188 11.3334 25.2734 11.4134 25.2094 11.4561C25.1508 11.4987 25.0681 11.5201 24.9614 11.5201C24.9188 11.5201 24.8628 11.5174 24.7934 11.5121C24.7241 11.5067 24.6521 11.5014 24.5774 11.4961C24.5028 11.4854 24.4254 11.4774 24.3454 11.4721C24.2708 11.4614 24.2014 11.4561 24.1374 11.4561C23.7748 11.4561 23.4841 11.5521 23.2654 11.7441C23.0521 11.9361 22.8708 12.2027 22.7214 12.5441V17.5841H20.2414V9.28806H21.7134C21.8361 9.28806 21.9374 9.29873 22.0174 9.32006C22.1028 9.34139 22.1721 9.37606 22.2254 9.42406C22.2841 9.46672 22.3268 9.52539 22.3534 9.60006C22.3854 9.67473 22.4121 9.76539 22.4334 9.87206L22.5614 10.5681Z" fill="#FFF8E8"/>
<path d="M28.8868 9.28806V17.5841H26.4068V9.28806H28.8868ZM29.1428 7.01606C29.1428 7.21339 29.1028 7.40006 29.0228 7.57606C28.9428 7.74672 28.8335 7.89872 28.6948 8.03206C28.5561 8.16006 28.3935 8.26406 28.2068 8.34406C28.0255 8.41873 27.8308 8.45606 27.6228 8.45606C27.4201 8.45606 27.2308 8.41873 27.0548 8.34406C26.8788 8.26406 26.7215 8.16006 26.5828 8.03206C26.4495 7.89872 26.3428 7.74672 26.2628 7.57606C26.1881 7.40006 26.1508 7.21339 26.1508 7.01606C26.1508 6.81339 26.1881 6.62406 26.2628 6.44806C26.3428 6.27206 26.4495 6.11739 26.5828 5.98406C26.7215 5.85073 26.8788 5.74673 27.0548 5.67206C27.2308 5.59739 27.4201 5.56006 27.6228 5.56006C27.8308 5.56006 28.0255 5.59739 28.2068 5.67206C28.3935 5.74673 28.5561 5.85073 28.6948 5.98406C28.8335 6.11739 28.9428 6.27206 29.0228 6.44806C29.1028 6.62406 29.1428 6.81339 29.1428 7.01606Z" fill="black"/>
<path d="M33.7764 13.0001C34.1871 13.0001 34.4831 12.8987 34.6644 12.6961C34.8511 12.4881 34.9444 12.2214 34.9444 11.8961C34.9444 11.5601 34.8511 11.2961 34.6644 11.1041C34.4831 10.9121 34.1871 10.8161 33.7764 10.8161C33.3658 10.8161 33.0671 10.9121 32.8804 11.1041C32.6991 11.2961 32.6084 11.5601 32.6084 11.8961C32.6084 12.0561 32.6298 12.2027 32.6724 12.3361C32.7204 12.4694 32.7924 12.5867 32.8884 12.6881C32.9844 12.7841 33.1044 12.8614 33.2484 12.9201C33.3978 12.9734 33.5738 13.0001 33.7764 13.0001ZM35.6964 17.8881C35.6964 17.6907 35.6084 17.5494 35.4324 17.4641C35.2564 17.3734 35.0271 17.3094 34.7444 17.2721C34.4618 17.2347 34.1444 17.2134 33.7924 17.2081C33.4458 17.1974 33.0991 17.1761 32.7524 17.1441C32.5978 17.2507 32.4698 17.3707 32.3684 17.5041C32.2724 17.6321 32.2244 17.7787 32.2244 17.9441C32.2244 18.0614 32.2484 18.1681 32.2964 18.2641C32.3498 18.3601 32.4404 18.4427 32.5684 18.5121C32.6964 18.5814 32.8671 18.6347 33.0804 18.6721C33.2991 18.7147 33.5738 18.7361 33.9044 18.7361C34.2618 18.7361 34.5551 18.7147 34.7844 18.6721C35.0138 18.6294 35.1951 18.5707 35.3284 18.4961C35.4671 18.4214 35.5631 18.3307 35.6164 18.2241C35.6698 18.1227 35.6964 18.0107 35.6964 17.8881ZM38.1444 9.54406V10.4481C38.1444 10.5867 38.1044 10.6961 38.0244 10.7761C37.9498 10.8561 37.8191 10.9174 37.6324 10.9601L37.0324 11.0961C37.0644 11.2134 37.0884 11.3334 37.1044 11.4561C37.1258 11.5787 37.1364 11.7067 37.1364 11.8401C37.1364 12.2561 37.0484 12.6294 36.8724 12.9601C36.7018 13.2907 36.4644 13.5734 36.1604 13.8081C35.8618 14.0374 35.5071 14.2161 35.0964 14.3441C34.6858 14.4667 34.2458 14.5281 33.7764 14.5281C33.6484 14.5281 33.5231 14.5254 33.4004 14.5201C33.2778 14.5094 33.1578 14.4934 33.0404 14.4721C32.8591 14.5841 32.7684 14.7094 32.7684 14.8481C32.7684 14.9867 32.8431 15.0881 32.9924 15.1521C33.1418 15.2107 33.3391 15.2534 33.5844 15.2801C33.8298 15.3014 34.1071 15.3174 34.4164 15.3281C34.7311 15.3334 35.0511 15.3521 35.3764 15.3841C35.7018 15.4107 36.0191 15.4587 36.3284 15.5281C36.6431 15.5974 36.9231 15.7094 37.1684 15.8641C37.4138 16.0187 37.6111 16.2267 37.7604 16.4881C37.9098 16.7441 37.9844 17.0721 37.9844 17.4721C37.9844 17.8454 37.8938 18.2107 37.7124 18.5681C37.5311 18.9254 37.2644 19.2427 36.9124 19.5201C36.5604 19.7974 36.1284 20.0187 35.6164 20.1841C35.1044 20.3547 34.5178 20.4401 33.8564 20.4401C33.2058 20.4401 32.6431 20.3787 32.1684 20.2561C31.6991 20.1334 31.3071 19.9707 30.9924 19.7681C30.6831 19.5707 30.4538 19.3414 30.3044 19.0801C30.1551 18.8187 30.0804 18.5467 30.0804 18.2641C30.0804 17.8961 30.1871 17.5894 30.4004 17.3441C30.6138 17.0987 30.9124 16.9014 31.2964 16.7521C31.0938 16.6294 30.9338 16.4721 30.8164 16.2801C30.6991 16.0881 30.6404 15.8401 30.6404 15.5361C30.6404 15.4134 30.6618 15.2854 30.7044 15.1521C30.7471 15.0134 30.8138 14.8801 30.9044 14.7521C31.0004 14.6187 31.1178 14.4934 31.2564 14.3761C31.3951 14.2587 31.5604 14.1547 31.7524 14.0641C31.3204 13.8347 30.9791 13.5334 30.7284 13.1601C30.4778 12.7814 30.3524 12.3414 30.3524 11.8401C30.3524 11.4241 30.4404 11.0507 30.6164 10.7201C30.7924 10.3841 31.0324 10.1014 31.3364 9.87206C31.6458 9.63739 32.0084 9.45873 32.4244 9.33606C32.8404 9.20806 33.2911 9.14406 33.7764 9.14406C34.4804 9.14406 35.1044 9.27739 35.6484 9.54406H38.1444Z" fill="black"/>
<path d="M41.7149 9.28806V17.5841H39.2349V9.28806H41.7149ZM41.9709 7.01606C41.9709 7.21339 41.9309 7.40006 41.8509 7.57606C41.7709 7.74672 41.6616 7.89872 41.5229 8.03206C41.3843 8.16006 41.2216 8.26406 41.0349 8.34406C40.8536 8.41873 40.6589 8.45606 40.4509 8.45606C40.2483 8.45606 40.0589 8.41873 39.8829 8.34406C39.7069 8.26406 39.5496 8.16006 39.4109 8.03206C39.2776 7.89872 39.1709 7.74672 39.0909 7.57606C39.0163 7.40006 38.9789 7.21339 38.9789 7.01606C38.9789 6.81339 39.0163 6.62406 39.0909 6.44806C39.1709 6.27206 39.2776 6.11739 39.4109 5.98406C39.5496 5.85073 39.7069 5.74673 39.8829 5.67206C40.0589 5.59739 40.2483 5.56006 40.4509 5.56006C40.6589 5.56006 40.8536 5.59739 41.0349 5.67206C41.2216 5.74673 41.3843 5.85073 41.5229 5.98406C41.6616 6.11739 41.7709 6.27206 41.8509 6.44806C41.9309 6.62406 41.9709 6.81339 41.9709 7.01606Z" fill="black"/>
<path d="M45.7325 10.1841C45.8925 10.0347 46.0579 9.89606 46.2285 9.76806C46.3992 9.64006 46.5805 9.53339 46.7725 9.44806C46.9699 9.35739 47.1805 9.28806 47.4045 9.24006C47.6339 9.18672 47.8819 9.16006 48.1485 9.16006C48.6019 9.16006 49.0019 9.24006 49.3485 9.40006C49.7006 9.55473 49.9965 9.77339 50.2365 10.0561C50.4765 10.3334 50.6579 10.6667 50.7805 11.0561C50.9032 11.4401 50.9645 11.8587 50.9645 12.3121V17.5841H48.4845V12.3121C48.4845 11.9067 48.3912 11.5921 48.2045 11.3681C48.0179 11.1387 47.7432 11.0241 47.3805 11.0241C47.1085 11.0241 46.8525 11.0827 46.6125 11.2001C46.3779 11.3121 46.1485 11.4667 45.9245 11.6641V17.5841H43.4445V9.28806H44.9805C45.2899 9.28806 45.4925 9.42672 45.5885 9.70406L45.7325 10.1841Z" fill="black"/>
<path d="M52.2335 16.3281C52.2335 16.1361 52.2682 15.9574 52.3375 15.7921C52.4122 15.6267 52.5109 15.4827 52.6335 15.3601C52.7615 15.2374 52.9109 15.1414 53.0815 15.0721C53.2522 14.9974 53.4389 14.9601 53.6415 14.9601C53.8389 14.9601 54.0229 14.9974 54.1935 15.0721C54.3642 15.1414 54.5135 15.2374 54.6415 15.3601C54.7695 15.4827 54.8682 15.6267 54.9375 15.7921C55.0122 15.9574 55.0495 16.1361 55.0495 16.3281C55.0495 16.5201 55.0122 16.7014 54.9375 16.8721C54.8682 17.0374 54.7695 17.1814 54.6415 17.3041C54.5135 17.4267 54.3642 17.5227 54.1935 17.5921C54.0229 17.6614 53.8389 17.6961 53.6415 17.6961C53.4389 17.6961 53.2522 17.6614 53.0815 17.5921C52.9109 17.5227 52.7615 17.4267 52.6335 17.3041C52.5109 17.1814 52.4122 17.0374 52.3375 16.8721C52.2682 16.7014 52.2335 16.5201 52.2335 16.3281Z" fill="black"/>
</svg>
