<svg width="23" height="28" viewBox="0 0 23 28" fill="none" xmlns="http://www.w3.org/2000/svg">
<path d="M0.833008 9.99984H0.333008V10.0248L0.335489 10.0496L0.833008 9.99984ZM2.16634 23.3332H2.66634V23.3082L2.66386 23.2834L2.16634 23.3332ZM20.833 23.3332L20.3355 23.2834L20.333 23.3082V23.3332H20.833ZM22.1663 9.99984L22.6639 10.0496L22.6663 10.0248V9.99984H22.1663ZM14.9997 13.9998C14.9997 14.276 15.2235 14.4998 15.4997 14.4998C15.7758 14.4998 15.9997 14.276 15.9997 13.9998H14.9997ZM6.99967 13.9998C6.99967 14.276 7.22353 14.4998 7.49967 14.4998C7.77582 14.4998 7.99967 14.276 7.99967 13.9998H6.99967ZM20.833 8.1665H15.4997V9.1665H20.833V8.1665ZM15.9997 8.6665V5.99984H14.9997V8.6665H15.9997ZM15.9997 5.99984C15.9997 4.48313 15.7288 3.03779 15.0207 1.9565C14.2916 0.843077 13.1306 0.166504 11.4997 0.166504V1.1665C12.8094 1.1665 13.6484 1.68626 14.1841 2.50434C14.7409 3.35456 14.9997 4.57588 14.9997 5.99984H15.9997ZM11.4997 0.166504C9.86875 0.166504 8.70775 0.843077 7.97863 1.9565C7.27056 3.03779 6.99967 4.48313 6.99967 5.99984H7.99967C7.99967 4.57588 8.25846 3.35456 8.81522 2.50434C9.35093 1.68626 10.1899 1.1665 11.4997 1.1665V0.166504ZM6.99967 5.99984V8.6665H7.99967V5.99984H6.99967ZM7.49967 8.1665H2.16634V9.1665H7.49967V8.1665ZM2.16634 8.1665C1.1542 8.1665 0.333008 8.98769 0.333008 9.99984H1.33301C1.33301 9.53998 1.70648 9.1665 2.16634 9.1665V8.1665ZM0.335489 10.0496L1.66882 23.3829L2.66386 23.2834L1.33053 9.95008L0.335489 10.0496ZM1.66634 23.3332C1.66634 25.8153 3.6842 27.8332 6.16634 27.8332V26.8332C4.23648 26.8332 2.66634 25.263 2.66634 23.3332H1.66634ZM6.16634 27.8332H16.833V26.8332H6.16634V27.8332ZM16.833 27.8332C19.3152 27.8332 21.333 25.8153 21.333 23.3332H20.333C20.333 25.263 18.7629 26.8332 16.833 26.8332V27.8332ZM21.3305 23.3829L22.6639 10.0496L21.6688 9.95008L20.3355 23.2834L21.3305 23.3829ZM22.6663 9.99984C22.6663 8.98769 21.8451 8.1665 20.833 8.1665V9.1665C21.2929 9.1665 21.6663 9.53998 21.6663 9.99984H22.6663ZM14.9997 8.6665V13.9998H15.9997V8.6665H14.9997ZM6.99967 8.6665V13.9998H7.99967V8.6665H6.99967ZM6.16634 9.1665H16.833V8.1665H6.16634V9.1665Z" fill="black"/>
</svg>
