<svg width="24" height="25" viewBox="0 0 24 25" fill="none" xmlns="http://www.w3.org/2000/svg">
<path fill-rule="evenodd" clip-rule="evenodd" d="M8.8007 10.0592H7.5431V7.12164L6.0451 2.64404H7.3119L8.1291 5.60804H8.2083L8.9867 2.64404H10.2651L8.8007 6.98324V10.0592ZM5.9127 11.784H18.3643C20.3431 11.784 21.9479 13.39 21.9479 15.3688V18.2492C21.9479 20.228 20.3431 21.8336 18.3643 21.8336H5.9127C3.9335 21.8336 2.3291 20.228 2.3291 18.2492V15.3688C2.3291 13.39 3.9335 11.784 5.9127 11.784ZM7.3711 14.0264H8.5287V13.048H5.0959V14.0264H6.2527V19.7784H7.3711V14.0264ZM11.7987 19.7784H10.8067V19.2344C10.6223 19.4356 10.4323 19.5892 10.2339 19.6928C10.0355 19.8008 9.8439 19.8512 9.6575 19.8512C9.4271 19.8512 9.2559 19.778 9.1387 19.6292C9.0235 19.4808 8.9647 19.2608 8.9647 18.9636V14.8128H9.9567V18.622C9.9567 18.7396 9.9787 18.824 10.0183 18.8764C10.0611 18.9304 10.1291 18.9552 10.2223 18.9552C10.2943 18.9552 10.3871 18.9208 10.4987 18.8512C10.6111 18.7808 10.7135 18.6928 10.8067 18.584V14.8124H11.7987V19.7784ZM15.1667 19.5616C15.3223 19.3736 15.4003 19.104 15.4003 18.7532H15.3995V15.9976C15.3995 15.5912 15.3167 15.2812 15.1503 15.0696C14.9847 14.858 14.7455 14.7532 14.4315 14.7532C14.2771 14.7532 14.1247 14.7916 13.9731 14.8712C13.8247 14.9492 13.6827 15.0656 13.5483 15.2156V13.048H12.5443V19.778H13.5483V19.3976C13.6783 19.5512 13.8211 19.662 13.9727 19.734C14.1235 19.8068 14.2971 19.842 14.4923 19.842C14.7855 19.842 15.0119 19.7496 15.1667 19.5616ZM18.8415 17.4152H16.9431V18.3508C16.9431 18.6116 16.9751 18.7932 17.0399 18.8944C17.1063 18.996 17.2179 19.0456 17.3767 19.0456C17.5415 19.0456 17.6555 19.0028 17.7219 18.9172C17.7859 18.8308 17.8203 18.6428 17.8203 18.3508V18.1248H18.8415V18.3796C18.8415 18.8884 18.7179 19.272 18.4671 19.5308C18.2203 19.7872 17.8483 19.9144 17.3539 19.9144C16.9087 19.9144 16.5579 19.7788 16.3031 19.506C16.0491 19.2348 15.9195 18.8584 15.9195 18.38V16.1496C15.9195 15.7204 16.0611 15.3672 16.3423 15.0964C16.6227 14.8256 16.9839 14.6904 17.4283 14.6904C17.8831 14.6904 18.2323 14.8156 18.4759 15.0668C18.7195 15.3184 18.8415 15.6784 18.8415 16.1492V17.4152ZM17.0463 15.6956C17.1151 15.6028 17.2279 15.5584 17.3863 15.5584C17.5371 15.5584 17.6487 15.6032 17.7155 15.6956C17.7851 15.7824 17.8203 15.932 17.8203 16.1404V16.6424H16.9431V16.1404C16.9431 15.932 16.9759 15.7828 17.0463 15.6956ZM13.9635 15.5416C13.8931 15.5416 13.8219 15.5572 13.7535 15.5896C13.6839 15.6212 13.6159 15.6736 13.5487 15.7416V18.8348C13.6283 18.9148 13.7071 18.9764 13.7839 19.0116C13.8603 19.0456 13.9395 19.0648 14.0239 19.0648C14.1459 19.0648 14.2347 19.0296 14.2919 18.9584C14.3483 18.888 14.3771 18.7756 14.3771 18.6168V16.0524C14.3771 15.8836 14.3435 15.7572 14.2731 15.6704C14.2003 15.5848 14.0971 15.5416 13.9635 15.5416ZM13.1659 9.79764C12.8755 10.064 12.4771 10.1972 11.9691 10.1972C11.4807 10.1972 11.0887 10.0592 10.7955 9.78444C10.5023 9.50844 10.3555 9.14044 10.3555 8.67524V5.84004C10.3555 5.41484 10.5063 5.07844 10.8063 4.82764C11.1071 4.57684 11.5115 4.45124 12.0195 4.45124C12.4819 4.45124 12.8611 4.58404 13.1571 4.84764C13.4511 5.11204 13.5987 5.45484 13.5987 5.87124V8.69684C13.5987 9.16484 13.4543 9.53004 13.1659 9.79764ZM11.6323 5.50844C11.5487 5.58364 11.5059 5.67964 11.5059 5.79844H11.5055V8.77844C11.5055 8.92844 11.5455 9.04364 11.6243 9.12564C11.7043 9.20964 11.8183 9.24964 11.9659 9.24964C12.1167 9.24964 12.2367 9.20844 12.3259 9.12444C12.4159 9.04084 12.4603 8.92484 12.4603 8.77884V5.79844C12.4603 5.67964 12.4151 5.58364 12.3243 5.50844C12.2331 5.43484 12.1135 5.39924 11.9659 5.39924C11.8291 5.39924 11.7191 5.43484 11.6323 5.50844ZM15.9331 9.96404C15.7111 10.0792 15.4955 10.1392 15.2855 10.1392C15.0259 10.1392 14.8331 10.0564 14.7011 9.89244C14.5715 9.73084 14.5059 9.48724 14.5059 9.16124V4.58964H15.6215V8.78324C15.6215 8.91164 15.6475 9.00524 15.6935 9.06244C15.7387 9.12204 15.8159 9.15084 15.9207 9.15084C16.0027 9.15084 16.1067 9.11244 16.2331 9.03564C16.3571 8.95804 16.4727 8.86044 16.5767 8.74164V4.58964H17.6939V10.0596H16.5767V9.45364C16.3723 9.67644 16.1575 9.84724 15.9331 9.96404Z" fill="black"/>
</svg>
